ffmpeg started on 2025-06-05 at 20:50:03
Report written to "D:\Convert\FFMetrics\reports\ssim_report-6.txt"
Log level: 32
Command line:
ffmpeg -hide_banner -nostdin -i "G:\\\xc0\xed\xe8\xec\xe5\\\xce\xed\xe3\xee\xe8\xed\xe3\xe8\\!_36_\xce\xf1\xe5\xed\xfc_2024\\DreamCast\\\xcd\xe5\xe7\xed\xe0\xea\xee\xec\xf6\xfb \xe2 \xe4\xf0\xf3\xe3\xee\xe9 \xe6\xe8\xe7\xed\xe8\\[DC] Raise wa Tanin ga Ii - 06_Telegram_HEVC.mkv" -i "G:\\\xc0\xed\xe8\xec\xe5\\\xce\xed\xe3\xee\xe8\xed\xe3\xe8\\!_36_\xce\xf1\xe5\xed\xfc_2024\\DreamCast\\\xcd\xe5\xe7\xed\xe0\xea\xee\xec\xf6\xfb \xe2 \xe4\xf0\xf3\xe3\xee\xe9 \xe6\xe8\xe7\xed\xe8\\[DC] Raise wa Tanin ga Ii - 06_Telegram.mp4" -lavfi "[0:v]settb=AVTB,setpts=PTS-STARTPTS,format=pix_fmts=yuv420p10,fps=24000/1001,scale=1920:1080:flags=bicubic[main];[1:v]settb=AVTB,setpts=PTS-STARTPTS,format=pix_fmts=yuv420p,fps=24000/1001,scale=1920:1080:flags=bicubic[ref];[main][ref]ssim=eof_action=endall:stats_file='D\\:/Convert/FFMetrics/logs/ssim_logfile-6.txt'" -f null -
Input #0, matroska,webm, from 'G:\Аниме\Онгоинги\!_36_Осень_2024\DreamCast\Незнакомцы в другой жизни\[DC] Raise wa Tanin ga Ii - 06_Telegram_HEVC.mkv':
  Metadata:
    COMPATIBLE_BRANDS: isomiso2avc1mp41
    MAJOR_BRAND     : isom
    MINOR_VERSION   : 512
    ENCODER         : Lavf61.7.100
  Duration: 00:23:46.73, start: -0.021000, bitrate: 945 kb/s
  Stream #0:0: Video: hevc (Main 10), yuv420p10le(tv, bt709, progressive), 1920x1080 [SAR 1:1 DAR 16:9], 23.98 fps, 23.98 tbr, 1k tbn (default)
      Metadata:
        HANDLER_NAME    : VideoHandler
        VENDOR_ID       : [0][0][0][0]
        ENCODER         : Lavc61.19.100 libx265
        BPS             : 749077
        DURATION        : 00:23:46.508708333
        NUMBER_OF_FRAMES: 34202
        NUMBER_OF_BYTES : 133570623
        _STATISTICS_WRITING_APP: mkvpropedit v66.0.0 ('Josie') 64-bit
        _STATISTICS_WRITING_DATE_UTC: 2025-05-31 15:37:38
        _STATISTICS_TAGS: BPS DURATION NUMBER_OF_FRAMES NUMBER_OF_BYTES
  Stream #0:1: Audio: aac (LC), 48000 Hz, stereo, fltp (default)
      Metadata:
        HANDLER_NAME    : SoundHandler
        VENDOR_ID       : [0][0][0][0]
        ENCODER         : Lavc61.19.100 aac
        BPS             : 192589
        DURATION        : 00:23:46.730000000
        NUMBER_OF_FRAMES: 66879
        NUMBER_OF_BYTES : 34346686
        _STATISTICS_WRITING_APP: mkvpropedit v66.0.0 ('Josie') 64-bit
        _STATISTICS_WRITING_DATE_UTC: 2025-05-31 15:37:38
        _STATISTICS_TAGS: BPS DURATION NUMBER_OF_FRAMES NUMBER_OF_BYTES
Input #1, mov,mp4,m4a,3gp,3g2,mj2, from 'G:\Аниме\Онгоинги\!_36_Осень_2024\DreamCast\Незнакомцы в другой жизни\[DC] Raise wa Tanin ga Ii - 06_Telegram.mp4':
  Metadata:
    major_brand     : isom
    minor_version   : 512
    compatible_brands: isomiso2avc1mp41
    encoder         : Lavf61.1.100
  Duration: 00:23:46.68, start: 0.000000, bitrate: 3776 kb/s
  Stream #1:0[0x1](und): Video: h264 (High) (avc1 / 0x31637661), yuv420p(tv, bt709, progressive), 1920x1080 [SAR 1:1 DAR 16:9], 3628 kb/s, 23.98 fps, 23.98 tbr, 24k tbn (default)
      Metadata:
        handler_name    : VideoHandler
        vendor_id       : [0][0][0][0]
        encoder         : Lavc61.3.100 h264_qsv
  Stream #1:1[0x2](und): Audio: aac (HE-AACv2) (mp4a / 0x6134706D), 48000 Hz, stereo, fltp, 144 kb/s (default)
      Metadata:
        handler_name    : SoundHandler
        vendor_id       : [0][0][0][0]
Stream mapping:
  Stream #0:0 (hevc) -> settb:default
  Stream #1:0 (h264) -> settb:default
  ssim:default -> Stream #0:0 (wrapped_avframe)
  Stream #0:1 -> #0:1 (aac (native) -> pcm_s16le (native))
Output #0, null, to 'pipe:':
  Metadata:
    COMPATIBLE_BRANDS: isomiso2avc1mp41
    MAJOR_BRAND     : isom
    MINOR_VERSION   : 512
    encoder         : Lavf61.7.100
  Stream #0:0: Video: wrapped_avframe, yuv420p10le(tv, bt709, progressive), 1920x1080 [SAR 1:1 DAR 16:9], q=2-31, 200 kb/s, 23.98 fps, 23.98 tbn
      Metadata:
        encoder         : Lavc61.19.100 wrapped_avframe
  Stream #0:1: Audio: pcm_s16le, 48000 Hz, stereo, s16, 1536 kb/s (default)
      Metadata:
        HANDLER_NAME    : SoundHandler
        VENDOR_ID       : [0][0][0][0]
        _STATISTICS_TAGS: BPS DURATION NUMBER_OF_FRAMES NUMBER_OF_BYTES
        BPS             : 192589
        DURATION        : 00:23:46.730000000
        NUMBER_OF_FRAMES: 66879
        NUMBER_OF_BYTES : 34346686
        _STATISTICS_WRITING_APP: mkvpropedit v66.0.0 ('Josie') 64-bit
        _STATISTICS_WRITING_DATE_UTC: 2025-05-31 15:37:38
        encoder         : Lavc61.19.100 pcm_s16le
frame=  164 fps=0.0 q=-0.0 size=N/A time=00:00:06.84 bitrate=N/A speed=13.2x    frame=  380 fps=370 q=-0.0 size=N/A time=00:00:15.84 bitrate=N/A speed=15.4x    frame=  618 fps=400 q=-0.0 size=N/A time=00:00:25.77 bitrate=N/A speed=16.7x    frame=  878 fps=424 q=-0.0 size=N/A time=00:00:36.61 bitrate=N/A speed=17.7x    frame= 1117 fps=434 q=-0.0 size=N/A time=00:00:46.58 bitrate=N/A speed=18.1x    frame= 1350 fps=436 q=-0.0 size=N/A time=00:00:56.30 bitrate=N/A speed=18.2x    frame= 1591 fps=440 q=-0.0 size=N/A time=00:01:06.35 bitrate=N/A speed=18.4x    frame= 1841 fps=447 q=-0.0 size=N/A time=00:01:16.78 bitrate=N/A speed=18.6x    frame= 2118 fps=456 q=-0.0 size=N/A time=00:01:28.33 bitrate=N/A speed=  19x    frame= 2375 fps=460 q=-0.0 size=N/A time=00:01:39.05 bitrate=N/A speed=19.2x    frame= 2619 fps=461 q=-0.0 size=N/A time=00:01:49.23 bitrate=N/A speed=19.2x    frame= 2860 fps=462 q=-0.0 size=N/A time=00:01:59.28 bitrate=N/A speed=19.3x    frame= 3115 fps=465 q=-0.0 size=N/A time=00:02:09.92 bitrate=N/A speed=19.4x    frame= 3355 fps=464 q=-0.0 size=N/A time=00:02:19.93 bitrate=N/A speed=19.4x    frame= 3610 fps=467 q=-0.0 size=N/A time=00:02:30.56 bitrate=N/A speed=19.5x    frame= 3862 fps=467 q=-0.0 size=N/A time=00:02:41.07 bitrate=N/A speed=19.5x    frame= 4089 fps=465 q=-0.0 size=N/A time=00:02:50.54 bitrate=N/A speed=19.4x    frame= 4305 fps=463 q=-0.0 size=N/A time=00:02:59.55 bitrate=N/A speed=19.3x    frame= 4563 fps=465 q=-0.0 size=N/A time=00:03:10.31 bitrate=N/A speed=19.4x    frame= 4823 fps=467 q=-0.0 size=N/A time=00:03:21.15 bitrate=N/A speed=19.5x    frame= 5091 fps=469 q=-0.0 size=N/A time=00:03:32.33 bitrate=N/A speed=19.6x    frame= 5299 fps=466 q=-0.0 size=N/A time=00:03:41.01 bitrate=N/A speed=19.4x    frame= 5481 fps=461 q=-0.0 size=N/A time=00:03:48.60 bitrate=N/A speed=19.2x    frame= 5678 fps=458 q=-0.0 size=N/A time=00:03:56.81 bitrate=N/A speed=19.1x    frame= 5871 fps=455 q=-0.0 size=N/A time=00:04:04.86 bitrate=N/A speed=  19x    frame= 6091 fps=454 q=-0.0 size=N/A time=00:04:14.04 bitrate=N/A speed=18.9x    frame= 6315 fps=453 q=-0.0 size=N/A time=00:04:23.38 bitrate=N/A speed=18.9x    frame= 6553 fps=453 q=-0.0 size=N/A time=00:04:33.31 bitrate=N/A speed=18.9x    frame= 6779 fps=453 q=-0.0 size=N/A time=00:04:42.74 bitrate=N/A speed=18.9x    frame= 6991 fps=451 q=-0.0 size=N/A time=00:04:51.58 bitrate=N/A speed=18.8x    frame= 7210 fps=450 q=-0.0 size=N/A time=00:05:00.71 bitrate=N/A speed=18.8x    frame= 7440 fps=451 q=-0.0 size=N/A time=00:05:10.31 bitrate=N/A speed=18.8x    frame= 7690 fps=451 q=-0.0 size=N/A time=00:05:20.73 bitrate=N/A speed=18.8x    frame= 7927 fps=452 q=-0.0 size=N/A time=00:05:30.62 bitrate=N/A speed=18.8x    frame= 8160 fps=452 q=-0.0 size=N/A time=00:05:40.34 bitrate=N/A speed=18.8x    frame= 8395 fps=452 q=-0.0 size=N/A time=00:05:50.14 bitrate=N/A speed=18.8x    frame= 8630 fps=452 q=-0.0 size=N/A time=00:05:59.94 bitrate=N/A speed=18.9x    frame= 8904 fps=454 q=-0.0 size=N/A time=00:06:11.37 bitrate=N/A speed=18.9x    frame= 9175 fps=456 q=-0.0 size=N/A time=00:06:22.67 bitrate=N/A speed=  19x    frame= 9416 fps=456 q=-0.0 size=N/A time=00:06:32.72 bitrate=N/A speed=  19x    frame= 9685 fps=458 q=-0.0 size=N/A time=00:06:43.94 bitrate=N/A speed=19.1x    frame= 9909 fps=457 q=-0.0 size=N/A time=00:06:53.28 bitrate=N/A speed=19.1x    frame=10156 fps=458 q=-0.0 size=N/A time=00:07:03.58 bitrate=N/A speed=19.1x    frame=10395 fps=458 q=-0.0 size=N/A time=00:07:13.55 bitrate=N/A speed=19.1x    frame=10668 fps=459 q=-0.0 size=N/A time=00:07:24.94 bitrate=N/A speed=19.2x    frame=10935 fps=461 q=-0.0 size=N/A time=00:07:36.08 bitrate=N/A speed=19.2x    frame=11203 fps=462 q=-0.0 size=N/A time=00:07:47.25 bitrate=N/A speed=19.3x    frame=11475 fps=463 q=-0.0 size=N/A time=00:07:58.60 bitrate=N/A speed=19.3x    frame=11725 fps=464 q=-0.0 size=N/A time=00:08:09.03 bitrate=N/A speed=19.3x    frame=12000 fps=465 q=-0.0 size=N/A time=00:08:20.50 bitrate=N/A speed=19.4x    frame=12250 fps=465 q=-0.0 size=N/A time=00:08:30.92 bitrate=N/A speed=19.4x    frame=12390 fps=462 q=-0.0 size=N/A time=00:08:36.76 bitrate=N/A speed=19.3x    frame=12542 fps=459 q=-0.0 size=N/A time=00:08:43.10 bitrate=N/A speed=19.1x    frame=12741 fps=457 q=-0.0 size=N/A time=00:08:51.40 bitrate=N/A speed=19.1x    frame=12955 fps=456 q=-0.0 size=N/A time=00:09:00.33 bitrate=N/A speed=  19x    frame=13201 fps=457 q=-0.0 size=N/A time=00:09:10.59 bitrate=N/A speed=19.1x    frame=13485 fps=459 q=-0.0 size=N/A time=00:09:22.43 bitrate=N/A speed=19.1x    frame=13757 fps=460 q=-0.0 size=N/A time=00:09:33.78 bitrate=N/A speed=19.2x    frame=14028 fps=461 q=-0.0 size=N/A time=00:09:45.08 bitrate=N/A speed=19.2x    frame=14308 fps=462 q=-0.0 size=N/A time=00:09:56.76 bitrate=N/A speed=19.3x    frame=14565 fps=463 q=-0.0 size=N/A time=00:10:07.48 bitrate=N/A speed=19.3x    frame=14844 fps=464 q=-0.0 size=N/A time=00:10:19.11 bitrate=N/A speed=19.4x    frame=15081 fps=464 q=-0.0 size=N/A time=00:10:29.00 bitrate=N/A speed=19.4x    frame=15353 fps=465 q=-0.0 size=N/A time=00:10:40.34 bitrate=N/A speed=19.4x    frame=15600 fps=465 q=-0.0 size=N/A time=00:10:50.65 bitrate=N/A speed=19.4x    frame=15850 fps=466 q=-0.0 size=N/A time=00:11:01.07 bitrate=N/A speed=19.4x    frame=16116 fps=466 q=-0.0 size=N/A time=00:11:12.17 bitrate=N/A speed=19.4x    frame=16362 fps=466 q=-0.0 size=N/A time=00:11:22.43 bitrate=N/A speed=19.5x    frame=16638 fps=467 q=-0.0 size=N/A time=00:11:33.94 bitrate=N/A speed=19.5x    frame=16889 fps=468 q=-0.0 size=N/A time=00:11:44.41 bitrate=N/A speed=19.5x    frame=17130 fps=468 q=-0.0 size=N/A time=00:11:54.46 bitrate=N/A speed=19.5x    frame=17384 fps=468 q=-0.0 size=N/A time=00:12:05.05 bitrate=N/A speed=19.5x    frame=17615 fps=468 q=-0.0 size=N/A time=00:12:14.69 bitrate=N/A speed=19.5x    frame=17829 fps=467 q=-0.0 size=N/A time=00:12:23.61 bitrate=N/A speed=19.5x    frame=18026 fps=466 q=-0.0 size=N/A time=00:12:31.83 bitrate=N/A speed=19.4x    frame=18240 fps=465 q=-0.0 size=N/A time=00:12:40.76 bitrate=N/A speed=19.4x    frame=18481 fps=465 q=-0.0 size=N/A time=00:12:50.81 bitrate=N/A speed=19.4x    frame=18717 fps=465 q=-0.0 size=N/A time=00:13:00.65 bitrate=N/A speed=19.4x    frame=18971 fps=466 q=-0.0 size=N/A time=00:13:11.24 bitrate=N/A speed=19.4x    frame=19219 fps=466 q=-0.0 size=N/A time=00:13:21.59 bitrate=N/A speed=19.4x    frame=19482 fps=466 q=-0.0 size=N/A time=00:13:32.56 bitrate=N/A speed=19.4x    frame=19746 fps=467 q=-0.0 size=N/A time=00:13:43.57 bitrate=N/A speed=19.5x    frame=19980 fps=467 q=-0.0 size=N/A time=00:13:53.33 bitrate=N/A speed=19.5x    frame=20210 fps=466 q=-0.0 size=N/A time=00:14:02.92 bitrate=N/A speed=19.4x    frame=20463 fps=466 q=-0.0 size=N/A time=00:14:13.47 bitrate=N/A speed=19.5x    frame=20700 fps=466 q=-0.0 size=N/A time=00:14:23.40 bitrate=N/A speed=19.5x    frame=20969 fps=467 q=-0.0 size=N/A time=00:14:34.58 bitrate=N/A speed=19.5x    frame=21240 fps=468 q=-0.0 size=N/A time=00:14:45.88 bitrate=N/A speed=19.5x    frame=21469 fps=467 q=-0.0 size=N/A time=00:14:55.43 bitrate=N/A speed=19.5x    frame=21688 fps=467 q=-0.0 size=N/A time=00:15:04.57 bitrate=N/A speed=19.5x    frame=21934 fps=467 q=-0.0 size=N/A time=00:15:14.83 bitrate=N/A speed=19.5x    frame=22144 fps=467 q=-0.0 size=N/A time=00:15:23.58 bitrate=N/A speed=19.5x    frame=22398 fps=467 q=-0.0 size=N/A time=00:15:34.18 bitrate=N/A speed=19.5x    frame=22634 fps=467 q=-0.0 size=N/A time=00:15:44.02 bitrate=N/A speed=19.5x    frame=22901 fps=467 q=-0.0 size=N/A time=00:15:55.16 bitrate=N/A speed=19.5x    frame=23157 fps=468 q=-0.0 size=N/A time=00:16:05.83 bitrate=N/A speed=19.5x    frame=23422 fps=468 q=-0.0 size=N/A time=00:16:16.89 bitrate=N/A speed=19.5x    frame=23654 fps=468 q=-0.0 size=N/A time=00:16:26.56 bitrate=N/A speed=19.5x    frame=23889 fps=468 q=-0.0 size=N/A time=00:16:36.37 bitrate=N/A speed=19.5x    frame=24097 fps=467 q=-0.0 size=N/A time=00:16:45.04 bitrate=N/A speed=19.5x    frame=24346 fps=467 q=-0.0 size=N/A time=00:16:55.43 bitrate=N/A speed=19.5x    frame=24617 fps=468 q=-0.0 size=N/A time=00:17:06.73 bitrate=N/A speed=19.5x    frame=24864 fps=468 q=-0.0 size=N/A time=00:17:17.03 bitrate=N/A speed=19.5x    frame=25101 fps=468 q=-0.0 size=N/A time=00:17:26.92 bitrate=N/A speed=19.5x    frame=25356 fps=468 q=-0.0 size=N/A time=00:17:37.55 bitrate=N/A speed=19.5x    frame=25572 fps=468 q=-0.0 size=N/A time=00:17:46.56 bitrate=N/A speed=19.5x    frame=25832 fps=468 q=-0.0 size=N/A time=00:17:57.40 bitrate=N/A speed=19.5x    frame=26066 fps=468 q=-0.0 size=N/A time=00:18:07.16 bitrate=N/A speed=19.5x    frame=26340 fps=468 q=-0.0 size=N/A time=00:18:18.59 bitrate=N/A speed=19.5x    frame=26579 fps=468 q=-0.0 size=N/A time=00:18:28.56 bitrate=N/A speed=19.5x    frame=26840 fps=469 q=-0.0 size=N/A time=00:18:39.45 bitrate=N/A speed=19.5x    frame=27087 fps=469 q=-0.0 size=N/A time=00:18:49.75 bitrate=N/A speed=19.6x    frame=27326 fps=469 q=-0.0 size=N/A time=00:18:59.72 bitrate=N/A speed=19.5x    frame=27584 fps=469 q=-0.0 size=N/A time=00:19:10.48 bitrate=N/A speed=19.6x    frame=27821 fps=469 q=-0.0 size=N/A time=00:19:20.36 bitrate=N/A speed=19.6x    frame=28029 fps=468 q=-0.0 size=N/A time=00:19:29.04 bitrate=N/A speed=19.5x    frame=28227 fps=467 q=-0.0 size=N/A time=00:19:37.30 bitrate=N/A speed=19.5x    frame=28426 fps=467 q=-0.0 size=N/A time=00:19:45.60 bitrate=N/A speed=19.5x    frame=28663 fps=467 q=-0.0 size=N/A time=00:19:55.48 bitrate=N/A speed=19.5x    frame=28929 fps=467 q=-0.0 size=N/A time=00:20:06.58 bitrate=N/A speed=19.5x    frame=29208 fps=468 q=-0.0 size=N/A time=00:20:18.21 bitrate=N/A speed=19.5x    frame=29427 fps=467 q=-0.0 size=N/A time=00:20:27.35 bitrate=N/A speed=19.5x    frame=29678 fps=467 q=-0.0 size=N/A time=00:20:37.81 bitrate=N/A speed=19.5x    frame=29917 fps=467 q=-0.0 size=N/A time=00:20:47.78 bitrate=N/A speed=19.5x    frame=30143 fps=467 q=-0.0 size=N/A time=00:20:57.21 bitrate=N/A speed=19.5x    frame=30372 fps=467 q=-0.0 size=N/A time=00:21:06.76 bitrate=N/A speed=19.5x    frame=30628 fps=467 q=-0.0 size=N/A time=00:21:17.44 bitrate=N/A speed=19.5x    frame=30877 fps=467 q=-0.0 size=N/A time=00:21:27.82 bitrate=N/A speed=19.5x    frame=31139 fps=468 q=-0.0 size=N/A time=00:21:38.75 bitrate=N/A speed=19.5x    frame=31408 fps=468 q=-0.0 size=N/A time=00:21:49.97 bitrate=N/A speed=19.5x    frame=31649 fps=468 q=-0.0 size=N/A time=00:22:00.02 bitrate=N/A speed=19.5x    frame=31915 fps=468 q=-0.0 size=N/A time=00:22:11.12 bitrate=N/A speed=19.5x    frame=32166 fps=469 q=-0.0 size=N/A time=00:22:21.59 bitrate=N/A speed=19.5x    frame=32415 fps=469 q=-0.0 size=N/A time=00:22:31.97 bitrate=N/A speed=19.6x    frame=32632 fps=468 q=-0.0 size=N/A time=00:22:41.02 bitrate=N/A speed=19.5x    frame=32842 fps=468 q=-0.0 size=N/A time=00:22:49.78 bitrate=N/A speed=19.5x    frame=33043 fps=467 q=-0.0 size=N/A time=00:22:58.16 bitrate=N/A speed=19.5x    frame=33251 fps=467 q=-0.0 size=N/A time=00:23:06.84 bitrate=N/A speed=19.5x    frame=33410 fps=466 q=-0.0 size=N/A time=00:23:13.47 bitrate=N/A speed=19.4x    frame=33609 fps=465 q=-0.0 size=N/A time=00:23:21.77 bitrate=N/A speed=19.4x    frame=33777 fps=464 q=-0.0 size=N/A time=00:23:28.78 bitrate=N/A speed=19.4x    frame=33992 fps=464 q=-0.0 size=N/A time=00:23:37.74 bitrate=N/A speed=19.3x    [Parsed_ssim_10 @ 0000013205b6db80] SSIM Y:0.995595 (23.560227) U:0.994195 (22.361914) V:0.994149 (22.327746) All:0.995120 (23.116203)
[out#0/null @ 0000013278d9f080] video:14696KiB audio:267516KiB subtitle:0KiB other streams:0KiB global headers:0KiB muxing overhead: unknown
frame=34202 fps=464 q=-0.0 Lsize=N/A time=00:23:46.50 bitrate=N/A speed=19.4x    
